<mxfile host="app.diagrams.net" modified="2024-07-22T13:39:37.993Z" agent="Mozilla/5.0 (Windows NT 10.0; Win64; x64; rv:128.0) Gecko/20100101 Firefox/128.0" version="24.7.1" etag="OZ1N1URxU0W_T57jibOe" type="github">
  <diagram name="Page-1" id="IJZSR6Lv1rM5Y9HOXea_">
    <mxGraphModel>
      <root>
        <mxCell id="0" />
        <mxCell id="1" parent="0" />
      </root>
    </mxGraphModel>
  </diagram>
</mxfile>
